<?xml version="1.0" encoding="UTF-8"?>
<!DOCTYPE svg PUBLIC "-//W3C//DTD SVG 1.1//EN" "http://www.w3.org/Graphics/SVG/1.1/DTD/svg11.dtd">
<svg xmlns="http://www.w3.org/2000/svg" version="1.1" width="38pt" height="38pt" viewBox="0 0 128 128" style="shape-rendering:geometricPrecision; text-rendering:geometricPrecision; image-rendering:optimizeQuality; fill-rule:evenodd; clip-rule:evenodd" xmlns:xlink="http://www.w3.org/1999/xlink">
<g><path style="opacity:0.875" fill="#fe8000" d="M 59.5,21.5 C 60.8164,24.0866 61.483,27.0866 61.5,30.5C 61.3333,33.5 61.1667,36.5 61,39.5C 52.8333,47.6667 44.6667,55.8333 36.5,64C 30.4724,64.8303 24.4724,64.6636 18.5,63.5C 32.1879,49.4793 45.8546,35.4793 59.5,21.5 Z"/></g>
<g><path style="opacity:0.858" fill="#fe8000" d="M 64.5,21.5 C 69.4063,24.8983 73.9063,28.8983 78,33.5C 78.6667,45.5 78.6667,57.5 78,69.5C 73.3663,73.1321 69.033,77.1321 65,81.5C 64.5,61.5028 64.3334,41.5028 64.5,21.5 Z"/></g>
<g><path style="opacity:0.91" fill="#fe8000" d="M 60.5,45.5 C 61.8279,65.3373 61.8279,85.3373 60.5,105.5C 56.5151,102.016 52.6818,98.349 49,94.5C 48.3333,82.1667 48.3333,69.8333 49,57.5C 53.037,53.631 56.8704,49.631 60.5,45.5 Z"/></g>
<g><path style="opacity:0.876" fill="#fe8000" d="M 90.5,62.5 C 96.1667,62.5 101.833,62.5 107.5,62.5C 94.2837,77.3855 80.2837,91.7188 65.5,105.5C 64.3364,99.5276 64.1697,93.5276 65,87.5C 73.3951,78.937 81.8951,70.6037 90.5,62.5 Z"/></g>
</svg>
